<?xml version="1.0" encoding="iso-8859-1"?>
<!-- Generator: Adobe Illustrator 19.0.0, SVG Export Plug-In . SVG Version: 6.00 Build 0)  -->
<svg version="1.1" id="Layer_1" xmlns="http://www.w3.org/2000/svg" xmlns:xlink="http://www.w3.org/1999/xlink" x="0px" y="0px"
	 viewBox="0 0 504.4 504.4" style="enable-background:new 0 0 504.4 504.4;" xml:space="preserve">
<path style="fill:#DF5C4E;" d="M300.8,207.2v-92h38.4L248.4,6l-82.8,109.2h39.2v92H300.8z"/>
<g>
	<path style="fill:#E9B526;" d="M168.8,248c0,0,0.4-20.8,0.4-28.8l-20.8,4.8c-15.2,8-37.2,12-61.6,12s-46.4-4-61.6-12L4,214.8
		c0,8,0.8,33.2,0.8,33.2c0,8,0,24,0,24c0,8,0,24,0,24c0,8,0,24,0,24c0,8,0,24,0,24c0,8,0,24,0,24c0,8,0,20,0,20c0,8,0,24,0,24
		c0,8,0,24,0,24c0,8,0,24,0,24c0,20,36.4,35.6,82,35.6s82-15.6,82-35.6c0,0,0-16,0-24c0,0,0-16,0-24c0,0,0-16,0-24c0,0,0-12,0-20
		c0,0,0-16,0-24c0,0,0-16,0-24c0,0,0-16,0-24c0,0,0-16,0-24C168.8,272,168.8,256,168.8,248z"/>
	<path style="fill:#E9B526;" d="M332.8,320c0,0,0-26,0-34l-19.2,10c-15.2,8-36.8,12-61.6,12c-24.4,0-46.8-4-62-12l-21.2-12
		c0,8,0,36,0,36c0,8,0,24,0,24c0,8,0,24,0,24c0,8,0,20,0,20c0,8,0,24,0,24c0,8,0,24,0,24c0,8,0,24,0,24c0,20,37.2,35.6,83.2,35.6
		c45.6,0,82.4-15.6,82.4-35.6c0,0-1.6-16-1.6-24c0,0,0-16,0-24c0,0,0-16,0-24c0,0,0-12,0-20c0,0,1.6-16,1.6-24
		C334.4,344,332.8,328,332.8,320z"/>
	<path style="fill:#E9B526;" d="M500.8,388c0,0-0.8-20.8-0.8-28.8l-20.8,8.8c-15.2,8-36.8,12-61.6,12s-46.4-4-61.6-12l-21.6-15.2
		c0,8-1.6,35.2-1.6,35.2c0,8,0,24,0,24c0,8,0,24,0,24c0,8,0,24,0,24c0,20,38.4,35.6,84,35.6s84-15.6,84-35.6c0,0,0-16,0-24
		c0,0,0-16,0-24C500.8,412,500.8,396,500.8,388z"/>
</g>
<g>
	<path style="fill:#F0C960;" d="M252.4,235.6c-45.6,0-82.8,16-82.8,35.6c0,9.2,8,16,21.2,23.6c15.2,8,37.2,12,61.6,12
		c24.4,0,46.4-4,61.6-12c13.2-8,21.2-14.8,21.2-24C334.8,252,298,235.6,252.4,235.6z"/>
	<path style="fill:#F0C960;" d="M86.8,164.8c-45.6,0-82.8,16-82.8,35.6c0,9.2,8,16,21.2,24c15.2,8,37.2,12,61.6,12
		c24.4,0,46.4-4,61.6-12c13.2-8,21.2-14.8,21.2-24C169.6,180.8,132.4,164.8,86.8,164.8z"/>
	<path style="fill:#F0C960;" d="M417.6,306.8c-45.6,0-82.8,16-82.8,35.6c0,9.2,8,16,21.2,24c15.2,8,37.2,12,61.6,12s46.4-4,61.6-12
		c13.2-8,21.2-14.8,21.2-24C500.4,322.8,463.2,306.8,417.6,306.8z"/>
</g>
<path d="M86.8,310.4C38,310.4,0,293.2,0,270.8c0-2.4,1.6-4,4-4s4,1.6,4,4c0,15.2,31.6,31.6,78.8,31.6s78.8-16.4,78.8-31.6
	c0-2.4,1.6-4,4-4s4,1.6,4,4C173.6,293.2,135.6,310.4,86.8,310.4z"/>
<path d="M86.8,334C38,334,0,316.8,0,294.4c0-2.4,1.6-4,4-4s4,1.6,4,4C8,309.6,39.6,326,86.8,326s78.8-16.4,78.8-31.6
	c0-2.4,1.6-4,4-4s4,1.6,4,4C173.6,316.8,135.6,334,86.8,334z"/>
<path d="M86.8,358C38,358,0,340.8,0,318.4c0-2.4,1.6-4,4-4s4,1.6,4,4C8,333.6,39.6,350,86.8,350s78.8-16.4,78.8-31.6
	c0-2.4,1.6-4,4-4s4,1.6,4,4C173.6,340.4,135.6,358,86.8,358z"/>
<path d="M86.8,263.2C38,263.2,0,246,0,223.6c0-2.4,1.6-4,4-4s4,1.6,4,4c0,15.2,31.6,31.6,78.8,31.6s78.8-16.4,78.8-31.6
	c0-2.4,1.6-4,4-4s4,1.6,4,4C173.6,246,135.6,263.2,86.8,263.2z"/>
<path d="M86.8,286.8C38,286.8,0,269.6,0,247.2c0-2.4,1.6-4,4-4s4,1.6,4,4c0,15.2,31.6,31.6,78.8,31.6s78.8-16.4,78.8-31.6
	c0-2.4,1.6-4,4-4s4,1.6,4,4C173.6,269.6,135.6,286.8,86.8,286.8z"/>
<path d="M86.8,381.6C38,381.6,0,364.4,0,342c0-2.4,1.6-4,4-4s4,1.6,4,4c0,15.2,31.6,31.6,78.8,31.6s78.8-16.4,78.8-31.6
	c0-2.4,1.6-4,4-4s4,1.6,4,4C173.6,364,135.6,381.6,86.8,381.6z"/>
<path d="M86.8,405.2C38,405.2,0,388,0,365.6c0-2.4,1.6-4,4-4s4,1.6,4,4c0,15.2,31.6,31.6,78.8,31.6s78.8-16.4,78.8-31.6
	c0-2.4,1.6-4,4-4s4,1.6,4,4C173.6,387.6,135.6,405.2,86.8,405.2z"/>
<path d="M86.8,428.8C38,428.8,0,411.6,0,389.2c0-2.4,1.6-4,4-4s4,1.6,4,4c0,15.2,31.6,31.6,78.8,31.6s78.8-16.4,78.8-31.6
	c0-2.4,1.6-4,4-4s4,1.6,4,4C173.6,411.6,135.6,428.8,86.8,428.8z"/>
<path d="M86.8,452.4C38,452.4,0,435.2,0,412.8c0-2.4,1.6-4,4-4s4,1.6,4,4c0,15.2,31.6,31.6,78.8,31.6s78.8-16.4,78.8-31.6
	c0-2.4,1.6-4,4-4s4,1.6,4,4C173.6,435.2,135.6,452.4,86.8,452.4z"/>
<path d="M86.8,476C38,476,0,458.8,0,436.4c0-2.4,1.6-4,4-4s4,1.6,4,4C8,451.6,39.6,468,86.8,468s78.8-16.4,78.8-31.6
	c0-2.4,1.6-4,4-4s4,1.6,4,4C173.6,458.8,135.6,476,86.8,476z"/>
<path d="M86.8,499.6C38,499.6,0,482.4,0,460c0-2.4,1.6-4,4-4s4,1.6,4,4c0,15.2,31.6,31.6,78.8,31.6s78.8-16.4,78.8-31.6
	c0-2.4,1.6-4,4-4s4,1.6,4,4C173.6,482.4,135.6,499.6,86.8,499.6z"/>
<path d="M252,334c-48.8,0-86.8-17.2-86.8-39.6c0-2.4,1.6-4,4-4s4,1.6,4,4c0,15.2,31.6,31.6,78.8,31.6s78.8-16.4,78.8-31.6
	c0-2.4,1.6-4,4-4s4,1.6,4,4C338.8,316.8,300.8,334,252,334z"/>
<path d="M252,358c-48.8,0-86.8-17.2-86.8-39.6c0-2.4,1.6-4,4-4s4,1.6,4,4c0,15.2,31.6,31.6,78.8,31.6s78.8-16.4,78.8-31.6
	c0-2.4,1.6-4,4-4s4,1.6,4,4C338.8,340.4,300.8,358,252,358z"/>
<path d="M252,381.6c-48.8,0-86.8-17.2-86.8-39.6c0-2.4,1.6-4,4-4s4,1.6,4,4c0,15.2,31.6,31.6,78.8,31.6s78.8-16.4,78.8-31.6
	c0-2.4,1.6-4,4-4s4,1.6,4,4C338.8,364,300.8,381.6,252,381.6z"/>
<path d="M252,405.2c-48.8,0-86.8-17.2-86.8-39.6c0-2.4,1.6-4,4-4s4,1.6,4,4c0,15.2,31.6,31.6,78.8,31.6s78.8-16.4,78.8-31.6
	c0-2.4,1.6-4,4-4s4,1.6,4,4C338.8,387.6,300.8,405.2,252,405.2z"/>
<path d="M252,428.8c-48.8,0-86.8-17.2-86.8-39.6c0-2.4,1.6-4,4-4s4,1.6,4,4c0,15.2,31.6,31.6,78.8,31.6s78.8-16.4,78.8-31.6
	c0-2.4,1.6-4,4-4s4,1.6,4,4C338.8,411.6,300.8,428.8,252,428.8z"/>
<path d="M252,452.4c-48.8,0-86.8-17.2-86.8-39.6c0-2.4,1.6-4,4-4s4,1.6,4,4c0,15.2,31.6,31.6,78.8,31.6s78.8-16.4,78.8-31.6
	c0-2.4,1.6-4,4-4s4,1.6,4,4C338.8,435.2,300.8,452.4,252,452.4z"/>
<path d="M252,476c-48.8,0-86.8-17.2-86.8-39.6c0-2.4,1.6-4,4-4s4,1.6,4,4c0,15.2,31.6,31.6,78.8,31.6s78.8-16.4,78.8-31.6
	c0-2.4,1.6-4,4-4s4,1.6,4,4C338.8,458.8,300.8,476,252,476z"/>
<path d="M252,499.6c-48.8,0-86.8-17.2-86.8-39.6c0-2.4,1.6-4,4-4s4,1.6,4,4c0,15.2,31.6,31.6,78.8,31.6s78.8-16.4,78.8-31.6
	c0-2.4,1.6-4,4-4s4,1.6,4,4C338.8,482.4,300.8,499.6,252,499.6z"/>
<path d="M417.6,405.2c-48.8,0-86.8-17.2-86.8-39.6c0-2.4,1.6-4,4-4s4,1.6,4,4c0,15.2,31.6,31.6,78.8,31.6s78.8-16.4,78.8-31.6
	c0-2.4,1.6-4,4-4s4,1.6,4,4C504,387.6,466,405.2,417.6,405.2z"/>
<path d="M417.6,428.8c-48.8,0-86.8-17.2-86.8-39.6c0-2.4,1.6-4,4-4s4,1.6,4,4c0,15.2,31.6,31.6,78.8,31.6s78.8-16.4,78.8-31.6
	c0-2.4,1.6-4,4-4s4,1.6,4,4C504,411.6,466,428.8,417.6,428.8z"/>
<path d="M417.6,452.4c-48.8,0-86.8-17.2-86.8-39.6c0-2.4,1.6-4,4-4s4,1.6,4,4c0,15.2,31.6,31.6,78.8,31.6s78.8-16.4,78.8-31.6
	c0-2.4,1.6-4,4-4s4,1.6,4,4C504,435.2,466,452.4,417.6,452.4z"/>
<path d="M417.6,476c-48.8,0-86.8-17.2-86.8-39.6c0-2.4,1.6-4,4-4s4,1.6,4,4c0,15.2,31.6,31.6,78.8,31.6s78.8-16.4,78.8-31.6
	c0-2.4,1.6-4,4-4s4,1.6,4,4C504,458.8,466,476,417.6,476z"/>
<path d="M417.6,499.6c-48.8,0-86.8-17.2-86.8-39.6c0-2.4,1.6-4,4-4s4,1.6,4,4c0,15.2,31.6,31.6,78.8,31.6s78.8-16.4,78.8-31.6
	c0-2.4,1.6-4,4-4s4,1.6,4,4C504,482.4,466,499.6,417.6,499.6z"/>
<path d="M252,310.4c-48.8,0-86.8-17.2-86.8-39.6s38-39.6,86.8-39.6s86.8,17.2,86.8,39.6S300.8,310.4,252,310.4z M252,239.6
	c-47.2,0-78.8,16.4-78.8,31.6s31.6,31.6,78.8,31.6s78.8-16.4,78.8-31.6S299.2,239.6,252,239.6z"/>
<path d="M86.8,239.6C38,239.6,0,222.4,0,200c0-22,38-39.6,86.8-39.6s86.8,17.2,86.8,39.6C173.6,222.4,135.6,239.6,86.8,239.6z
	 M86.8,168.4C39.6,168.4,8,184.8,8,200s31.6,31.6,78.8,31.6s78.8-16.4,78.8-31.6S134,168.4,86.8,168.4z"/>
<path d="M417.6,381.6c-48.8,0-86.8-17.2-86.8-39.6s38-39.6,86.8-39.6s86.8,17.2,86.8,39.6S466,381.6,417.6,381.6z M417.6,310.4
	c-47.2,0-78.8,16.4-78.8,31.6s31.6,31.6,78.8,31.6s78.8-16.4,78.8-31.6C496,326.8,464.4,310.4,417.6,310.4z"/>
<path d="M298.8,213.2h-96c-2.4,0-4-1.6-4-4v-88h-33.6c-1.6,0-2.8-0.8-3.6-2.4s-0.4-2.8,0.4-4.4l82.8-108c0.8-0.8,2-1.6,3.2-1.6
	s2.4,0.4,3.2,1.6l90.8,108c1.2,1.2,1.2,2.8,0.4,4.4s-2,2.4-3.6,2.4h-36v88C302.8,211.6,301.2,213.2,298.8,213.2z M206.8,205.2h88
	v-88c0-2.4,1.6-4,4-4h31.6l-82-97.6l-74.8,97.6h29.2c2.4,0,4,1.6,4,4V205.2z"/>
<g>
</g>
<g>
</g>
<g>
</g>
<g>
</g>
<g>
</g>
<g>
</g>
<g>
</g>
<g>
</g>
<g>
</g>
<g>
</g>
<g>
</g>
<g>
</g>
<g>
</g>
<g>
</g>
<g>
</g>
</svg>
