<?xml version="1.0" encoding="iso-8859-1"?>
<!-- Generator: Adobe Illustrator 19.0.0, SVG Export Plug-In . SVG Version: 6.00 Build 0)  -->
<svg version="1.1" id="Layer_1" xmlns="http://www.w3.org/2000/svg" xmlns:xlink="http://www.w3.org/1999/xlink" x="0px" y="0px"
	 viewBox="0 0 512 512" style="enable-background:new 0 0 512 512;" xml:space="preserve">
<path style="fill:#FFDFA1;" d="M208.729,333.619h282.776c7.46,0,13.563-6.103,13.563-13.563V77.621
	c0-7.46-6.103-13.563-13.563-13.563H208.729c-7.46,0-13.563,6.103-13.563,13.563v242.435
	C195.165,327.515,201.269,333.619,208.729,333.619z"/>
<path style="fill:#FFEFCA;" d="M67.53,496.21h334.122c7.46,0,13.563-6.103,13.563-13.563V230.433c0-7.46-6.103-13.563-13.563-13.563
	H67.53c-7.46,0-13.563,6.103-13.563,13.563v252.214C53.967,490.107,60.07,496.21,67.53,496.21z"/>
<path style="fill:#6BE8C7;" d="M357.107,112.715L357.107,112.715c7.46,0,19.294,62.581,19.294,70.041v194.146
	c0,7.46-6.103,13.563-13.563,13.563h-11.383c-7.46,0-13.563-6.103-13.563-13.563V182.755
	C337.891,175.295,349.647,112.715,357.107,112.715z"/>
<path style="fill:#FFDFA1;" d="M52.98,427.702h214.511c8.193,0,14.835-6.641,14.835-14.835V63.982H52.98V427.702z"/>
<path style="fill:#D3E8F1;" d="M242.517,409.996H21.972c-6.227,0-11.321-4.939-11.321-10.977V30.069
	c0-6.038,5.094-10.977,11.321-10.977H256.84c6.227,0,11.321,4.939,11.321,10.977v368.95c0,6.038-5.094,10.977-11.321,10.977h-24.541
	"/>
<g>
	<path style="fill:#FFFFFF;" d="M85.338,242.394H72.562c-6.789,0-12.345-5.555-12.345-12.345v-16.275
		c0-6.789,5.555-12.345,12.345-12.345h12.778c6.789,0,12.345,5.555,12.345,12.345v16.275
		C97.684,236.839,92.129,242.394,85.338,242.394z"/>
	<path style="fill:#FFFFFF;" d="M200.942,242.394h-12.776c-6.789,0-12.345-5.555-12.345-12.345v-16.275
		c0-6.789,5.555-12.345,12.345-12.345h12.778c6.789,0,12.345,5.555,12.345,12.345v16.275
		C213.288,236.839,207.733,242.394,200.942,242.394z"/>
	<path style="fill:#FFFFFF;" d="M85.338,356.461H72.562c-6.789,0-12.345-5.555-12.345-12.345v-16.275
		c0-6.789,5.555-12.345,12.345-12.345h12.778c6.789,0,12.345,5.555,12.345,12.345v16.275
		C97.684,350.906,92.129,356.461,85.338,356.461z"/>
	<path style="fill:#FFFFFF;" d="M200.942,356.461h-12.776c-6.789,0-12.345-5.555-12.345-12.345v-16.275
		c0-6.789,5.555-12.345,12.345-12.345h12.778c6.789,0,12.345,5.555,12.345,12.345v16.275
		C213.288,350.906,207.733,356.461,200.942,356.461z"/>
</g>
<g>
	<path style="fill:#BED8E4;" d="M143.288,242.394H130.51c-6.789,0-12.345-5.555-12.345-12.345v-16.275
		c0-6.789,5.555-12.345,12.345-12.345h12.778c6.789,0,12.345,5.555,12.345,12.345v16.275
		C155.632,236.839,150.077,242.394,143.288,242.394z"/>
	<path style="fill:#BED8E4;" d="M85.338,299.344H72.562c-6.789,0-12.345-5.555-12.345-12.345v-16.275
		c0-6.789,5.555-12.345,12.345-12.345h12.778c6.789,0,12.345,5.555,12.345,12.345v16.275
		C97.684,293.789,92.129,299.344,85.338,299.344z"/>
</g>
<path style="fill:#EBF9FE;" d="M143.288,299.344H130.51c-6.789,0-12.345-5.555-12.345-12.345v-16.275
	c0-6.789,5.555-12.345,12.345-12.345h12.778c6.789,0,12.345,5.555,12.345,12.345v16.275
	C155.632,293.789,150.077,299.344,143.288,299.344z"/>
<path style="fill:#BED8E4;" d="M143.288,356.461H130.51c-6.789,0-12.345-5.555-12.345-12.345v-16.275
	c0-6.789,5.555-12.345,12.345-12.345h12.778c6.789,0,12.345,5.555,12.345,12.345v16.275
	C155.632,350.906,150.077,356.461,143.288,356.461z"/>
<path style="fill:#EBF9FE;" d="M31.021,19.092H20.842c-6.227,0-11.321,4.939-11.321,10.977v368.95
	c0,6.038,5.094,10.977,11.321,10.977h10.18V19.092H31.021z"/>
<path style="fill:#B1C6D3;" d="M256.84,19.092H245.53v390.904h11.311c6.227,0,11.321-4.939,11.321-10.977V30.069
	C268.161,24.033,263.067,19.092,256.84,19.092z"/>
<path style="fill:#BED8E4;" d="M198.865,299.344h-12.778c-6.789,0-12.345-5.555-12.345-12.345v-16.275
	c0-6.789,5.555-12.345,12.345-12.345h12.778c6.789,0,12.345,5.555,12.345,12.345v16.275
	C211.209,293.789,205.654,299.344,198.865,299.344z"/>
<path style="fill:#F5FCFF;" d="M61.105,141.97c-5.71,0-10.383-3.566-10.383-7.923V76.384c0-4.358,4.672-7.923,10.383-7.923h152.416
	c5.71,0,10.383,3.566,10.383,7.923v57.662c0,4.358-4.673,7.923-10.383,7.923H61.105z"/>
<path style="fill:#3CD3A8;" d="M362.837,390.464c7.46,0,13.563-6.103,13.563-13.563V182.755c0-7.46-11.834-70.041-19.294-70.041l0,0
	c-2.204,0-4.783,5.463-7.323,13.353C366.847,168.999,362.837,210.013,362.837,390.464z"/>
<path d="M88.15,197.715H71.644c-9.076,0-16.46,7.384-16.46,16.46v16.506c0,9.076,7.384,16.46,16.46,16.46h1.911
	c4.682,0,8.477-3.795,8.477-8.477c0-4.682-3.795-8.477-8.477-8.477h-1.417V214.67h15.518l0.005,15.947
	c-0.628,4.639,2.623,8.91,7.263,9.537c4.636,0.63,8.909-2.623,9.537-7.263c0.098-0.73,0.149-1.473,0.149-2.21v-16.506
	C104.61,205.099,97.226,197.715,88.15,197.715z"/>
<path d="M145.119,197.715h-16.506c-9.076,0-16.46,7.384-16.46,16.46v16.506c0,9.076,7.384,16.46,16.46,16.46h1.911
	c4.682,0,8.477-3.795,8.477-8.477c0-4.682-3.795-8.477-8.477-8.477h-1.417V214.67h15.518l0.005,15.947
	c-0.628,4.639,2.623,8.91,7.263,9.537c4.632,0.63,8.909-2.623,9.537-7.263c0.098-0.73,0.149-1.473,0.149-2.21v-16.506
	C161.579,205.099,154.195,197.715,145.119,197.715z"/>
<path d="M202.086,197.715H185.58c-9.076,0-16.46,7.384-16.46,16.46v16.506c0,9.076,7.384,16.46,16.46,16.46h1.911
	c4.682,0,8.477-3.795,8.477-8.477c0-4.682-3.795-8.477-8.477-8.477h-1.417V214.67h15.518l0.005,15.947
	c-0.628,4.639,2.623,8.91,7.263,9.537c4.634,0.63,8.91-2.623,9.537-7.263c0.098-0.73,0.149-1.473,0.149-2.21v-16.506
	C218.546,205.099,211.163,197.715,202.086,197.715z"/>
<path d="M88.15,252.975H71.644c-9.076,0-16.46,7.384-16.46,16.46v16.506c0,9.076,7.384,16.46,16.46,16.46h1.911
	c4.682,0,8.477-3.795,8.477-8.477c0-4.682-3.795-8.477-8.477-8.477h-1.417v-15.518h15.518l0.005,15.949
	c-0.627,4.639,2.624,8.909,7.264,9.536c4.64,0.634,8.909-2.624,9.536-7.264c0.098-0.73,0.149-1.473,0.149-2.208v-16.506
	C104.61,260.358,97.226,252.975,88.15,252.975z"/>
<path d="M145.119,252.975h-16.506c-9.076,0-16.46,7.384-16.46,16.46v16.506c0,9.076,7.384,16.46,16.46,16.46h1.911
	c4.682,0,8.477-3.795,8.477-8.477c0-4.682-3.795-8.477-8.477-8.477h-1.417v-15.518h15.518l0.005,15.949
	c-0.627,4.639,2.624,8.909,7.264,9.536c4.642,0.634,8.909-2.624,9.536-7.264c0.098-0.73,0.149-1.473,0.149-2.208v-16.506
	C161.579,260.358,154.195,252.975,145.119,252.975z"/>
<path d="M202.086,252.975H185.58c-9.076,0-16.46,7.384-16.46,16.46v16.506c0,9.076,7.384,16.46,16.46,16.46h1.911
	c4.682,0,8.477-3.795,8.477-8.477c0-4.682-3.795-8.477-8.477-8.477h-1.417v-15.518h15.518l0.005,15.949
	c-0.627,4.639,2.624,8.909,7.264,9.536c4.645,0.634,8.909-2.624,9.536-7.264c0.098-0.73,0.149-1.473,0.149-2.208v-16.506
	C218.546,260.358,211.163,252.975,202.086,252.975z"/>
<path d="M87.316,308.334H70.81c-9.076,0-16.46,7.384-16.46,16.46V341.3c0,9.076,7.384,16.46,16.46,16.46h1.912
	c4.682,0,8.477-3.795,8.477-8.477c0-4.682-3.795-8.477-8.477-8.477h-1.417v-15.517h15.517l0.005,15.948
	c-0.627,4.639,2.624,8.909,7.264,9.536c4.642,0.636,8.909-2.626,9.536-7.264c0.098-0.727,0.148-1.469,0.148-2.207v-16.506
	C103.776,315.718,96.392,308.334,87.316,308.334z"/>
<path d="M144.285,308.334h-16.506c-9.076,0-16.46,7.384-16.46,16.46V341.3c0,9.076,7.384,16.46,16.46,16.46h1.912
	c4.682,0,8.477-3.795,8.477-8.477c0-4.682-3.795-8.477-8.477-8.477h-1.417v-15.517h15.517l0.005,15.948
	c-0.627,4.639,2.624,8.909,7.264,9.536c4.644,0.636,8.91-2.626,9.536-7.264c0.098-0.727,0.148-1.469,0.148-2.207v-16.506
	C160.744,315.718,153.36,308.334,144.285,308.334z"/>
<path d="M201.253,308.334h-16.506c-9.076,0-16.46,7.384-16.46,16.46V341.3c0,9.076,7.384,16.46,16.46,16.46h1.912
	c4.682,0,8.477-3.795,8.477-8.477c0-4.682-3.795-8.477-8.477-8.477h-1.417v-15.517h15.517l0.005,15.948
	c-0.627,4.639,2.624,8.909,7.264,9.536c4.64,0.636,8.909-2.626,9.536-7.264c0.098-0.727,0.148-1.469,0.148-2.207v-16.506
	C217.713,315.718,210.329,308.334,201.253,308.334z"/>
<path d="M212.491,60.898H60.404c-8.871,0-16.088,7.218-16.088,16.089v55.394c0,8.871,7.218,16.089,16.088,16.089h99.243
	c4.682,0,8.477-3.795,8.477-8.477s-3.795-8.477-8.477-8.477H61.269V77.852h150.356v53.664h-20.333c-4.682,0-8.477,3.795-8.477,8.477
	c0,4.682,3.795,8.477,8.477,8.477h21.198c8.871,0,16.089-7.218,16.089-16.089V76.987C228.58,68.115,221.363,60.898,212.491,60.898z"
	/>
<path d="M82.484,107.123c-4.682,0-8.477,3.795-8.477,8.477c0,4.682,3.795,8.477,8.477,8.477h18.173c4.682,0,8.477-3.795,8.477-8.477
	c0-4.682-3.795-8.477-8.477-8.477H82.484z"/>
<path d="M272.897,397.194V29.883c0-11.281-9.179-20.46-20.46-20.46H20.46C9.179,9.423,0,18.602,0,29.883v367.311
	c0,11.282,9.179,20.461,20.46,20.461h231.977C263.718,417.655,272.897,408.476,272.897,397.194z M16.954,397.194V29.883
	c0-1.901,1.605-3.506,3.506-3.506h231.977c1.901,0,3.506,1.605,3.506,3.506v367.311c0,1.901-1.605,3.507-3.506,3.507H20.46
	C18.559,400.701,16.954,399.095,16.954,397.194z"/>
<path d="M503.523,53.868H301.812c-4.682,0-8.477,3.795-8.477,8.477s3.795,8.477,8.477,8.477h193.234v252.099h-37.555
	c-4.682,0-8.477,3.795-8.477,8.477c0,4.682,3.795,8.477,8.477,8.477h46.032c4.682,0,8.477-3.795,8.477-8.477V62.345
	C512,57.664,508.205,53.868,503.523,53.868z"/>
<path d="M414.633,207.046h-12.631c-4.682,0-8.477,3.795-8.477,8.477s3.795,8.477,8.477,8.477h4.154v261.624H65.166v-42.102
	c0-4.682-3.795-8.477-8.477-8.477s-8.477,3.795-8.477,8.477V494.1c0,4.682,3.795,8.477,8.477,8.477h357.943
	c4.682,0,8.477-3.795,8.477-8.477V215.523C423.109,210.841,419.314,207.046,414.633,207.046z"/>
<path d="M312.19,207.046h-10.378c-4.682,0-8.477,3.795-8.477,8.477s3.795,8.477,8.477,8.477h10.378c4.682,0,8.477-3.795,8.477-8.477
	S316.872,207.046,312.19,207.046z"/>
<path d="M383.164,160.984c-0.005-0.189-0.01-0.378-0.028-0.569c-0.014-0.141-0.036-0.278-0.055-0.417
	c-0.019-0.133-0.035-0.267-0.061-0.4c-0.037-0.192-0.086-0.38-0.136-0.566c-0.018-0.069-0.029-0.137-0.049-0.206l-0.032-0.109
	c-0.005-0.016-0.009-0.033-0.015-0.049l-17.609-60.206c-1.043-3.567-4.288-6.039-8.005-6.097c-3.717-0.024-7.036,2.313-8.19,5.845
	l-19.706,60.364c-0.003,0.011-0.006,0.021-0.009,0.033c-0.062,0.192-0.112,0.39-0.159,0.589c-0.02,0.084-0.046,0.166-0.064,0.25
	c-0.029,0.137-0.046,0.277-0.069,0.416c-0.024,0.149-0.052,0.298-0.068,0.446c-0.008,0.076-0.009,0.154-0.015,0.229
	c-0.017,0.212-0.032,0.425-0.032,0.637c0,0.01-0.001,0.02-0.001,0.031V388.25c0,4.682,3.795,8.477,8.477,8.477H374.7
	c4.682,0,8.477-3.795,8.477-8.477v-53.555c0-4.682-3.795-8.477-8.477-8.477c-4.682,0-8.477,3.795-8.477,8.477v45.078h-20.408
	V169.684h20.408v126.343c0,4.682,3.795,8.477,8.477,8.477c4.682,0,8.477-3.795,8.477-8.477V161.367c0-0.015,0-0.029,0-0.044v-0.118
	C383.175,161.131,383.166,161.059,383.164,160.984z M356.598,129.521l6.788,23.209h-14.366L356.598,129.521z"/>
<path d="M404.657,128.57h60.395c4.682,0,8.477-3.795,8.477-8.477c0-4.682-3.795-8.477-8.477-8.477h-60.395
	c-4.682,0-8.477,3.795-8.477,8.477C396.18,124.775,399.975,128.57,404.657,128.57z"/>
<path d="M404.657,171.71h60.395c4.682,0,8.477-3.795,8.477-8.477s-3.795-8.477-8.477-8.477h-60.395
	c-4.682,0-8.477,3.795-8.477,8.477S399.975,171.71,404.657,171.71z"/>
<path d="M90.084,450.243c0,4.682,3.795,8.477,8.477,8.477h272.674c4.682,0,8.477-3.795,8.477-8.477c0-4.682-3.795-8.477-8.477-8.477
	H98.561C93.879,441.766,90.084,445.561,90.084,450.243z"/>
<g>
</g>
<g>
</g>
<g>
</g>
<g>
</g>
<g>
</g>
<g>
</g>
<g>
</g>
<g>
</g>
<g>
</g>
<g>
</g>
<g>
</g>
<g>
</g>
<g>
</g>
<g>
</g>
<g>
</g>
</svg>
