<?xml version="1.0" encoding="iso-8859-1"?>
<!-- Generator: Adobe Illustrator 19.0.0, SVG Export Plug-In . SVG Version: 6.00 Build 0)  -->
<svg version="1.1" id="Layer_1" xmlns="http://www.w3.org/2000/svg" xmlns:xlink="http://www.w3.org/1999/xlink" x="0px" y="0px"
	 viewBox="0 0 512.001 512.001" style="enable-background:new 0 0 512.001 512.001;" xml:space="preserve">
<path style="fill:#00B4D7;" d="M246.958,179.455l-48.923,49.034l-36.165-33.502v255.154H95.308V194.986
	c-17.195,17.195-34.501,33.502-34.501,33.502l-49.034-49.034L129.366,61.863L246.958,179.455z"/>
<path style="fill:#0093C4;" d="M12.106,179.454l49.034,49.034c0,0,17.306-16.308,34.501-33.502v255.154h32.947V62.972
	L12.106,179.454z"/>
<path d="M170.195,458.465H86.983V214.891c-11.365,11.075-20.342,19.54-20.466,19.657l-5.882,5.542L0,179.454L129.366,50.089
	l129.36,129.359l-60.463,60.601l-28.067-26.002V458.465z M103.634,441.814h49.911V175.925l44.263,41.004l37.383-37.468
	L129.366,73.636L23.547,179.454l37.408,37.408c6.515-6.222,17.561-16.859,28.466-27.764l14.212-14.212V441.814z"/>
<rect x="84.317" y="90.746" transform="matrix(-0.7071 -0.7071 0.7071 -0.7071 57.2303 309.1516)" style="fill:#FFFFFF;" width="16.65" height="103.955"/>
<path style="fill:#00B4D7;" d="M265.041,332.547l48.923-49.034l36.165,33.502V61.863h66.562v255.154
	c17.195-17.195,34.501-33.502,34.501-33.502l49.034,49.034L382.633,450.139L265.041,332.547z"/>
<path style="fill:#0093C4;" d="M499.893,332.547l-49.034-49.034c0,0-17.306,16.308-34.501,33.502V61.863h-32.948v387.168
	L499.893,332.547z"/>
<path d="M382.634,461.913l-129.36-129.359l60.463-60.6l28.067,26.002V53.537h83.212v243.574
	c11.365-11.075,20.342-19.54,20.467-19.657l5.882-5.542l60.635,60.635L382.634,461.913z M276.808,332.54l105.826,105.825
	l105.818-105.819l-37.408-37.409c-6.514,6.221-17.561,16.859-28.466,27.764l-14.213,14.213V70.188h-49.911v265.889l-44.263-41.004
	L276.808,332.54z"/>
<rect x="411.006" y="317.286" transform="matrix(-0.7071 -0.7071 0.7071 -0.7071 454.7342 926.884)" style="fill:#FFFFFF;" width="16.65" height="103.955"/>
<g>
</g>
<g>
</g>
<g>
</g>
<g>
</g>
<g>
</g>
<g>
</g>
<g>
</g>
<g>
</g>
<g>
</g>
<g>
</g>
<g>
</g>
<g>
</g>
<g>
</g>
<g>
</g>
<g>
</g>
</svg>
