<?xml version="1.0" encoding="iso-8859-1"?>
<!-- Generator: Adobe Illustrator 19.0.0, SVG Export Plug-In . SVG Version: 6.00 Build 0)  -->
<svg version="1.1" id="Layer_1" xmlns="http://www.w3.org/2000/svg" xmlns:xlink="http://www.w3.org/1999/xlink" x="0px" y="0px"
	 viewBox="0 0 512 512" style="enable-background:new 0 0 512 512;" xml:space="preserve">
<path style="fill:#F2EFE2;" d="M482.358,105.091v280.253c0,23.812-19.304,43.116-43.116,43.116H72.758
	c-23.812,0-43.116-19.304-43.116-43.116V105.091c0-23.812,19.304-43.116,43.116-43.116h366.484
	C463.054,61.975,482.358,81.279,482.358,105.091z"/>
<path style="fill:#E8BA52;" d="M266.779,158.986c0,71.436-57.911,129.347-129.347,129.347S8.084,230.422,8.084,158.986
	S65.995,29.638,137.432,29.638S266.779,87.549,266.779,158.986z"/>
<path style="fill:#FED766;" d="M245.221,158.986c0,59.53-48.26,107.789-107.789,107.789S29.642,218.516,29.642,158.986
	S77.902,51.196,137.432,51.196S245.221,99.454,245.221,158.986z"/>
<path style="fill:#FFED80;" d="M199.026,158.986c0,34.017-27.577,61.594-61.594,61.594s-61.594-27.577-61.594-61.594
	s27.577-61.594,61.594-61.594S199.026,124.968,199.026,158.986z"/>
<g>
	<path style="fill:#AD8653;" d="M207.11,158.986c0-30.183-19.295-55.937-46.195-65.596V72.754c0-4.465-3.62-8.084-8.084-8.084
		c-4.465,0-8.084,3.62-8.084,8.084v16.939c-2.405-0.252-4.844-0.386-7.315-0.386s-4.91,0.134-7.315,0.386V72.754
		c0-4.465-3.62-8.084-8.084-8.084s-8.084,3.62-8.084,8.084v20.635c-26.9,9.659-46.195,35.413-46.195,65.596
		s19.295,55.937,46.195,65.596v20.635c0,4.465,3.62,8.084,8.084,8.084s8.084-3.62,8.084-8.084v-16.939
		c2.405,0.252,4.844,0.386,7.315,0.386s4.91-0.134,7.315-0.386v16.939c0,4.465,3.62,8.084,8.084,8.084
		c4.465,0,8.084-3.62,8.084-8.084v-20.635C187.815,214.923,207.11,189.169,207.11,158.986z M83.922,158.986
		c0-21.085,12.262-39.355,30.027-48.069v96.139C96.184,198.341,83.922,180.07,83.922,158.986z M137.432,212.495
		c-2.482,0-4.921-0.184-7.315-0.513V105.989c2.393-0.329,4.832-0.513,7.315-0.513c2.482,0,4.921,0.184,7.315,0.513v105.995
		C142.352,212.311,139.914,212.495,137.432,212.495z M160.915,207.054v-96.139c17.765,8.714,30.027,26.984,30.027,48.069
		S178.678,198.341,160.915,207.054z"/>
	<path style="fill:#AD8653;" d="M223.663,237.755h258.695c11.906,0,21.558,9.651,21.558,21.558v212.262
		c0,11.906-9.651,21.558-21.558,21.558H223.663c-11.906,0-21.558-9.651-21.558-21.558V259.313
		C202.105,247.406,211.757,237.755,223.663,237.755z"/>
</g>
<path style="fill:#7F5233;" d="M318.186,295.795c0,12.823-10.394,23.217-23.216,23.217s-23.216-10.394-23.216-23.217
	c0-12.822,10.394-23.216,23.216-23.216C307.792,272.579,318.186,282.974,318.186,295.795z M411.051,272.579
	c-12.822,0-23.216,10.394-23.216,23.216c0,12.823,10.394,23.217,23.216,23.217c12.822,0,23.217-10.394,23.217-23.217
	C434.268,282.974,423.872,272.579,411.051,272.579z"/>
<path style="fill:#FC8059;" d="M482.358,91.617v97.011c0,4.465-3.62,8.084-8.084,8.084c-4.465,0-8.084-3.62-8.084-8.084V91.617
	c0-19.316-15.716-35.032-35.032-35.032h-88.544V95.29c0,1.127-0.568,2.21-1.578,3.007c-2.105,1.661-5.517,1.661-7.622,0
	l-41.92-33.082c-4.209-3.322-4.209-8.707,0-12.029l41.92-33.081c2.105-1.661,5.517-1.661,7.622,0
	c1.011,0.798,1.578,1.88,1.578,3.007v17.305h88.544C459.389,40.417,482.358,63.386,482.358,91.617z M220.506,425.219l-41.92-33.082
	c-2.105-1.661-5.517-1.661-7.622,0c-1.011,0.798-1.578,1.88-1.578,3.007v38.704H80.842c-19.316,0-35.032-15.716-35.032-35.032
	v-97.011c0-4.465-3.62-8.084-8.084-8.084s-8.084,3.62-8.084,8.084v97.011c0,28.231,22.969,51.2,51.2,51.2h88.544v17.305
	c0,1.127,0.568,2.21,1.578,3.007c2.105,1.661,5.517,1.661,7.622,0l41.92-33.081C224.715,433.926,224.715,428.54,220.506,425.219z"/>
<path style="fill:#4C4C4C;" d="M482.358,229.671h-63.223v-3.525c0-36.462-29.664-66.126-66.125-66.126s-66.125,29.664-66.125,66.126
	v3.525h-31.563c12.826-21.275,19.54-45.428,19.54-70.687c0-75.781-61.651-137.434-137.432-137.434S0,83.202,0,158.983
	s61.651,137.434,137.432,137.434c19.577,0,38.896-4.178,56.589-12.167v109.772l-10.426-8.229c-5.027-3.966-12.61-3.968-17.641,0.001
	c-2.957,2.335-4.652,5.744-4.652,9.353v28.005H72.758c-19.316,0-35.032-15.715-35.032-35.033v-97.012
	c0-4.466-3.62-8.084-8.084-8.084s-8.084,3.618-8.084,8.084v97.013c0,28.232,22.969,51.201,51.2,51.201h88.544v28.006
	c0,3.609,1.696,7.018,4.652,9.353c0.001,0,0.002,0.001,0.003,0.002c5.026,3.965,12.608,3.966,17.637-0.001l10.428-8.23v3.128
	c0,16.344,13.297,29.642,29.642,29.642h258.695c16.345,0,29.642-13.298,29.642-29.642V259.313
	C512,242.969,498.703,229.671,482.358,229.671z M411.051,303.88c4.465,0,8.084-3.618,8.084-8.084V283.01
	c4.233,2.685,7.047,7.414,7.047,12.786c0,8.344-6.788,15.133-15.131,15.133c-8.344,0-15.133-6.789-15.133-15.133
	c0-5.372,2.814-10.101,7.048-12.786v12.786C402.967,300.261,406.586,303.88,411.051,303.88z M303.054,226.146
	c0-27.546,22.411-49.957,49.956-49.957s49.956,22.411,49.956,49.957v3.525h-99.912V226.146z M294.97,303.88
	c4.465,0,8.084-3.618,8.084-8.084V283.01c4.233,2.685,7.048,7.414,7.048,12.786c0,8.344-6.789,15.133-15.133,15.133
	s-15.133-6.789-15.133-15.133c0-5.372,2.815-10.101,7.048-12.786v12.786C286.886,300.261,290.506,303.88,294.97,303.88z
	 M137.432,280.249c-66.865,0-121.263-54.4-121.263-121.265S70.567,37.718,137.432,37.718s121.263,54.4,121.263,121.265
	c0,25.654-7.845,50.007-22.73,70.686h-12.302c-16.345,0-29.642,13.298-29.642,29.642v6.946
	C176.666,275.425,157.201,280.249,137.432,280.249z M197.167,445.371c-0.045,0.033-0.088,0.068-0.133,0.105l-19.566,15.44v-59.359
	l19.606,15.473c0.016,0.013,0.032,0.026,0.049,0.039l17.953,14.168L197.167,445.371z M495.832,471.579
	c0,7.43-6.044,13.474-13.474,13.474H223.663c-7.43,0-13.474-6.045-13.474-13.474v-15.888l15.323-12.094
	c3.961-3.125,6.233-7.629,6.235-12.36c0-4.73-2.271-9.236-6.233-12.362l-15.324-12.093V271.165c0.001-0.099,0.001-0.198,0-0.296
	v-11.556c0-7.43,6.044-13.474,13.474-13.474h16.274c0.055,0,0.11,0,0.164,0h46.784v19.714
	c-13.353,3.573-23.217,15.778-23.217,30.242c0,17.26,14.042,31.302,31.301,31.302c17.259,0,31.301-14.042,31.301-31.302
	c0-14.464-9.863-26.669-23.217-30.242v-19.714h99.912v19.714c-13.353,3.573-23.217,15.778-23.217,30.242
	c0,17.26,14.042,31.302,31.301,31.302s31.3-14.042,31.3-31.302c0-14.464-9.863-26.669-23.216-30.242v-19.714h63.224
	c7.43,0,13.474,6.045,13.474,13.474V471.579z M286.486,71.559l41.92,33.082c5.027,3.967,12.61,3.967,17.638,0
	c2.959-2.335,4.655-5.744,4.655-9.354V67.283h88.543c19.316,0,35.032,15.715,35.032,35.033v97.013c0,4.466,3.62,8.084,8.084,8.084
	s8.084-3.618,8.084-8.084v-97.014c0-28.232-22.969-51.201-51.2-51.201h-88.544V23.107c0-3.61-1.697-7.019-4.655-9.354l-0.001-0.001
	c-5.026-3.964-12.607-3.966-17.635,0.001l-41.92,33.083c-3.961,3.126-6.233,7.63-6.233,12.361
	C280.253,63.926,282.524,68.433,286.486,71.559z M334.53,29.519v59.359l-37.609-29.68L334.53,29.519z"/>
<g>
</g>
<g>
</g>
<g>
</g>
<g>
</g>
<g>
</g>
<g>
</g>
<g>
</g>
<g>
</g>
<g>
</g>
<g>
</g>
<g>
</g>
<g>
</g>
<g>
</g>
<g>
</g>
<g>
</g>
</svg>
