<svg id="Calque_1" data-name="Calque 1" xmlns="http://www.w3.org/2000/svg" viewBox="0 0 50 50"><defs><style>.cls-1{fill:#ff1d25;}.cls-2{fill:red;}</style></defs><path class="cls-1" d="M35.25,19.76a16,16,0,0,0-1.68,3.69c-.24,1.35-1.33,1.25-2.07,1.65-.22.12-.94-.68-1.43-1.06l-2.14,1.14-1.3-3.05-2.8,3.69-1-1.72-2.56,1-1-3c-.51.86-.91,1.68-1.44,2.41-.69,1-1.54.88-1.74-.27a36.22,36.22,0,0,1-.28-4.9c0-.43.24-.93.09-1.29a10.82,10.82,0,0,0-1.12-1.83,6.5,6.5,0,0,0-1.35,1.43c-.82,1.67-1.39,3.47-2.31,5.09a6.09,6.09,0,0,1-2.33,2.2,2.25,2.25,0,0,1-2.09-.23,3.76,3.76,0,0,1-.83-2.17c0-.27.56-.64.87-1a6.29,6.29,0,0,1,.61,1.18,13.55,13.55,0,0,1,.28,1.71c.65-.32,1.61-.48,1.89-1a50.8,50.8,0,0,0,2.66-5.81c1-2.43,1.79-4.93,2.53-7-.69-.27-1.8-.35-2.15-.91s-.23-1.76-.34-3C10,8.53,9.81,11.11,8.71,13.14L8.3,13a17.26,17.26,0,0,1,.77-2.47A27.81,27.81,0,0,1,11.18,6.8a2,2,0,0,1,1.52-.69c.29,0,.64.78.77,1.26a23.52,23.52,0,0,1,.35,2.74l4.53-3.94.4.3c-2.77,2.24-3.56,5.4-4.13,8.93a6.54,6.54,0,0,0,1.7-1.26c1-1.46,1.69-3.09,2.66-4.55a13.66,13.66,0,0,1,2.56-2.95,2.14,2.14,0,0,1,2-.18c.5.34.63,1.3.75,2,0,.23-.46.56-.71.84a3.23,3.23,0,0,1-.53-1,5.87,5.87,0,0,0,0-1.52c-.55.31-1.3.48-1.63.94-.94,1.35-1.65,2.85-2.56,4.23s-1.91,2.63-3,4.06c2.17,2.22.64,5.26.84,8.06l.44.16c.39-.59.81-1.16,1.15-1.78,1-1.77,1.84-3.64,3-5.31.72-1.07,1.73-2.09,3.29-.85.27.21,1.07-.24,2-.48L23.6,24.11l.5.27a21.36,21.36,0,0,0,1.31-1.7c1.12-1.76,2.17-3.57,3.32-5.32.86-1.31,2-2,3.62-1,.7-2.41,1.34-4.74,2.1-7,.18-.55.75-1,1.14-1.44l.59.36L31.26,24l.56.27c.63-1,1.31-1.93,1.88-2.94.75-1.34,1.34-2.78,2.14-4.09a6.45,6.45,0,0,1,1.57-1.28l.29.39-1.78,6.8.34.18a33.39,33.39,0,0,1,2.42-3.93c.86-1.06.61-3.29,3-3.13l-2.82,8.05.73.37,2.86-4.39c.15,1.39-1.66,4.74-2.72,4.89a1.76,1.76,0,0,1-1.45-.95c-.19-.84,0-1.79-.27-2.87L34.24,28.5c-1,1.9-1.91,3.83-3,5.68-.24.43-1,.59-1.44.88-.29-.51-.8-1-.79-1.52A5.29,5.29,0,0,1,29.59,31a12.18,12.18,0,0,1,2.59-3.58C34.66,25.42,34.86,22.59,35.25,19.76Zm-7,4.47c2-.89,3.83-5.68,2.89-7.52C29.14,17.48,27.37,22.09,28.25,24.23Zm-7.46,0c.21-.05.47-.05.51-.14,1-2.16,2-4.33,2.88-6.53a1.11,1.11,0,0,0-.46-.93c-.36,0-1,.18-1.09.44-.78,2.19-1.47,4.41-2.15,6.63C20.44,23.87,20.68,24.09,20.79,24.27Zm9.3,10.06C32,32.46,32.6,30.05,33,27.57,31.68,29.68,29.09,31.23,30.09,34.33Z"/><path class="cls-1" d="M18.47,28.23c-1.73-1.51-5-.21-6.45,1.5a8.11,8.11,0,0,0-2,5.6c0,.45.32,1.25.53,1.27.54,0,1.39-.12,1.6-.5,1-1.69,1.83-3.47,2.66-5.25A8.77,8.77,0,0,0,15.19,29l.42,0a13.91,13.91,0,0,1-.28,2.44,40.31,40.31,0,0,1-1.77,4.9,2.42,2.42,0,0,1-2.94,1.44c-1.29-.33-1.26-1.51-1.28-2.55-.06-3.89,2.88-7.85,6.31-8.36a8.82,8.82,0,0,1,2.48.27c.61.09,1.2.22,1.83.34,0,.2-.21.7,0,1,1.54,2.41.86,4.47-.9,6.38,2.27,2.51,1.19,7.18-.84,8.26a2.78,2.78,0,0,1-2,.43,2.68,2.68,0,0,1-1-1.85,4.66,4.66,0,0,1,1.57-4.46A34.36,34.36,0,0,0,15.88,41a5.55,5.55,0,0,0,.5,1.87c.55-.28,1.29-.42,1.62-.87a6.42,6.42,0,0,0,1-5.54c-.24-1.06-.61-1.2-2.32-1,.3-.45.42-.88.67-1a3.46,3.46,0,0,0,2.27-3.89,2.87,2.87,0,0,0-.79-1.6c-.6,1.42-1.23,2.82-1.79,4.26-.86,2.24-1.59,4.54-2.55,6.75a8,8,0,0,1-2,2.84,3.94,3.94,0,0,1-2.59.74c-1.24-.07-1.83-2-1-3a.86.86,0,0,1,.57-.22,4.05,4.05,0,0,1,.54,1,13.39,13.39,0,0,1,.28,1.43c.59-.2,1.44-.23,1.72-.64a18.22,18.22,0,0,0,2-3.74C15.2,35,15.94,31.23,18.47,28.23Z"/><path class="cls-1" d="M30.06,43.49l2.79-7-.37-.22c-.29.42-.62.83-.88,1.27-.89,1.56-1.68,3.19-2.69,4.67a7.93,7.93,0,0,1-2,1.52l-1.32-2.15a3.76,3.76,0,0,1-.19-.56,21.63,21.63,0,0,1-1.58,2.14c-1.09,1.17-2.11.91-2.62-.61a5.7,5.7,0,0,1,2.08-6.66c1.24-.72,2-.32,2.05,1.13.07,1.76-1,2.75-2.42,3.51-.4.2-.88.6-.95,1s.27.91.44,1.37c.39-.2.95-.3,1.16-.63.82-1.27,1.5-2.62,2.3-3.9A12.16,12.16,0,0,1,27.62,36a1.76,1.76,0,0,1,1.52-.36,1.88,1.88,0,0,1,.69,1.4c.11,1.81-1.08,2.8-2.5,3.61-.34.19-.88.49-.88.73a5.34,5.34,0,0,0,.49,1.53c.4-.19,1-.27,1.17-.59,1.13-1.74,2.14-3.57,3.25-5.32.38-.6.58-1.86,1.6-1.27.42.24.29,1.46.37,2.24,0,.2-.1.42.08.72L35,35.43l.5.22c.55,1.87-2.33,2.92-1.11,5.4l.92-1.84.38.36c-.08.9-.46,1.72-1.43,1.82-.31,0-.71-.84-1.09-1.31C32,40.83,32.73,43.57,30.06,43.49Zm-5.7-7.17a3.07,3.07,0,0,0-1.78,3.47C23.78,39,24.75,38.07,24.36,36.32ZM26.86,40a3.24,3.24,0,0,0,2-3.79C27.41,37.11,27.21,38.52,26.86,40Z"/><path class="cls-2" d="M37.89,14.16l-1.34,1.46c-.24-.43-.71-.89-.66-1.28s.55-.92.85-1.37Z"/><path class="cls-2" d="M41.37,15.63c-1.3-1.53-1.18-2.1.61-2.85Z"/></svg>