<svg id="Calque_1"  data-name="Calque 1" xmlns="http://www.w3.org/2000/svg" viewBox="0 0 50 50"><defs><style>.cls-1{fill:red;}</style></defs><path  class="cls-1" d="M30,48.68a6.75,6.75,0,0,0,5.12-1.92l.64,1.6s.64,0,.64-.32-.32-1.92,0-2.24,1,.32,1.28,0S35.73,42,35.73,42a1.13,1.13,0,0,0-1.6.32s-1.92,2.88-2.24,2.56-3.52-2.56-3.52-4.48A5.51,5.51,0,0,1,29,37.48s.32-1,1-1a10.83,10.83,0,0,1,2.56,1l.32-.32s-1-1-1-1.6-.64-1.28-.32-1.6,1.6-1,2.24-.32,0,2.88,0,2.88l.64.64.64-.32a1.18,1.18,0,0,0,.64-1v-1h.32c.32,0,.32.64.32.64H37a3.35,3.35,0,0,0,.64-2.88s-1.6-1,.32-2.24l.64.64-.32-1.28s-1.92-2.88-2.88-2.88-3.2,1-3.84,0c0,0-1,0-.32,1.6,0,0,0,.64-.64.32s-8,1-8,1,.32-2.88,1.28-3.2,4.16-3.2,4.48-4.16A5.28,5.28,0,0,1,30,20.52l.32-1.28s0-.32.64-.32.32,1.28.32,1.28,1.6,0,1.6-.64V17.32c0-.32,1.28.64,1.28.64s-.64-2.56,0-2.56S37.65,17,37.33,18l1.28-.32v-1s-.32-1.6.32-1.92c0,0-1.6-2.24-1.28-2.88,0,0,0,1.6-2.56,1.6,0,0-1-1.92.64-2.24l-.32-.64-1.92,1a3.6,3.6,0,0,1,1.28-4.48s1.6,2.24,2.88.64H38v-1s-1.6,1.28-1.92,0a1.4,1.4,0,0,1,1-1.28c1-.32,1,0,1.28-.64,0,0-1-3.2-1.92-3.52H35.09v-1S33.17,1,33.17,1.64s0,2.88.32,3.2-2.56.64-3.84,4.8c0,0-2.88,0-2.56-1s1-1.28,1-1.92,1.28,1,2.88-1.92c0,0,.32-3.2-1.28-3.52L29.33,2s-.32,0,.32.32.64,2.56,0,2.88-.32,1-1.28,1-.32-.64-.32-.64V4.84S29.65,2,28.69,2a13.37,13.37,0,0,1-2.88-1s-1-1.28-3.52,0c0,0-2.88.32-3.2-.32,0,0-1,2.88-1.92,2.88l1,.64-.32,5.44s-1,1-.32,1a3.31,3.31,0,0,0,1.28-.32s1.28.32,0,1.6-1.28,1.6-1.92,1.28.32.32.32.32a3.88,3.88,0,0,0,1.6.32c1,0-.32,1.6-.32,1.6l-1.28-.32v.64s.64,1.6,1.6,1.28-2.24-.32-2.24-.32,1.28,3.52,3.2,3.84-1.6,1-1.28,2.24-.64,4.16,0,5.12c0,0-1.28,2.24-2.88,1.92s.32-2.24-2.56-1.92-2.24-7.36-2.24-7.36l1.28-1.92L13.33,18s1.28,0,1,.64a16,16,0,0,1-1.6,2.24,2.54,2.54,0,0,0-.32,2.56s2.24,3.52,2.88,3.52a1.18,1.18,0,0,0,1-.64,2.21,2.21,0,0,1-1-1.6c0-1-.64-1.92,0-2.56s.64-1.6,1.28-1.92-1-4.16-3.2-3.52c0,0,1-3.84,1.6-6.72,0,0,1.28-7-1-7.68s-2.56,0-2.56,0-1.28.64-1.92.32-1.28,4.16,0,4.8-.32,3.52,1.92,4.48.32,0,.32,0a2.22,2.22,0,0,1,0-1.6c.32-1,0-1.28.32-2.24l.64-1.92-.32-1.28-.64-.64.32-1,1.6.32a18,18,0,0,1,.64,3.2,49.45,49.45,0,0,1-1.92,7.36s-2.24,6.72-2.56,6.4c0,0,0,6.4,2.24,9.6l.64,1a9,9,0,0,0,2.56-.32c.64-.32,2.24.64,2.24.64s1,1.28-.32,1.28S13,32.36,13,32.36l-1,.32h-1L10.45,32l-1.6-.32v.64l.64.32s0,3.2-.64,3.52,2.24.32,2.24.32V37.8l-1.6.32a20.53,20.53,0,0,0,1.6,3.52c1,1.6-1.92.32-1.92.32s2.88,2.24,3.52,2.24c0,0-1.28,3.52,2.24,4.16L17.17,48s1.6-1,2.24-.32c0,0-.64-1.6,0-1.92s1.92-.64,1.92,0V44.52l-1-.32s.32-1.6-1-1.92-1.6.64-1.6.64l-.32.64s-2.88-.32-2.88-1.28-.32-4.48-.32-4.48,1.28,1,4.16,0a1,1,0,0,1,1,1.28h1.92v-1a2.89,2.89,0,0,0,1.28-2.88l1-1.6a4.36,4.36,0,0,1,1.6,2.88,1.86,1.86,0,0,1-1.28,1.92l-.32,1.28v1h1.6l.32,2.88-1,1.28.32.64,1-.64h.32l-.32,1.28.32.64.64-.64h.32s1.28,3.52,1.92,3.52h1Z"/></svg>